STARTFONT 2.1
FONT -gbdfed-3x6-Medium-R-Normal--6-80-96-96-M-3-ISO10646-1
SIZE 8 96 96
FONTBOUNDINGBOX 4 7 -1 -1
STARTPROPERTIES 19
POINT_SIZE 80
PIXEL_SIZE 6
RESOLUTION_X 96
RESOLUTION_Y 96
FONT_ASCENT 5
FONT_DESCENT 1
AVERAGE_WIDTH 3
SPACING "M"
_GBDFED_INFO "Edited with gbdfed 1.6."
FOUNDRY "gbdfed"
FAMILY_NAME "3x6"
WEIGHT_NAME "Medium"
SLANT "R"
SETWIDTH_NAME "Normal"
ADD_STYLE_NAME ""
CHARSET_REGISTRY "ISO10646"
CHARSET_ENCODING "1"
DEFAULT_CHAR 0
FACE_NAME "3x6"
ENDPROPERTIES
CHARS 465
STARTCHAR char32
ENCODING 32
SWIDTH 281 0
DWIDTH 4 0
BBX 0 0 0 0
BITMAP
ENDCHAR
STARTCHAR uni0021
ENCODING 33
SWIDTH 281 0
DWIDTH 4 0
BBX 1 5 1 0
BITMAP
80
80
80
00
80
ENDCHAR
STARTCHAR uni0022
ENCODING 34
SWIDTH 281 0
DWIDTH 4 0
BBX 3 2 0 3
BITMAP
A0
A0
ENDCHAR
STARTCHAR uni0023
ENCODING 35
SWIDTH 281 0
DWIDTH 4 0
BBX 3 5 0 -1
BITMAP
A0
E0
A0
E0
A0
ENDCHAR
STARTCHAR uni0024
ENCODING 36
SWIDTH 281 0
DWIDTH 4 0
BBX 3 6 0 -1
BITMAP
40
60
C0
60
C0
40
ENDCHAR
STARTCHAR uni0025
ENCODING 37
SWIDTH 281 0
DWIDTH 4 0
BBX 3 5 0 0
BITMAP
A0
20
40
80
A0
ENDCHAR
STARTCHAR uni0026
ENCODING 38
SWIDTH 281 0
DWIDTH 4 0
BBX 3 6 0 -1
BITMAP
40
A0
40
A0
E0
20
ENDCHAR
STARTCHAR uni0027
ENCODING 39
SWIDTH 281 0
DWIDTH 4 0
BBX 1 2 1 3
BITMAP
80
80
ENDCHAR
STARTCHAR uni0028
ENCODING 40
SWIDTH 281 0
DWIDTH 4 0
BBX 2 5 0 0
BITMAP
40
80
80
80
40
ENDCHAR
STARTCHAR uni0029
ENCODING 41
SWIDTH 281 0
DWIDTH 4 0
BBX 3 5 0 0
BITMAP
40
20
20
20
40
ENDCHAR
STARTCHAR uni002A
ENCODING 42
SWIDTH 281 0
DWIDTH 4 0
BBX 3 5 0 0
BITMAP
A0
40
E0
40
A0
ENDCHAR
STARTCHAR uni002B
ENCODING 43
SWIDTH 281 0
DWIDTH 4 0
BBX 3 3 0 1
BITMAP
40
E0
40
ENDCHAR
STARTCHAR uni002C
ENCODING 44
SWIDTH 281 0
DWIDTH 4 0
BBX 2 2 0 -1
BITMAP
40
80
ENDCHAR
STARTCHAR uni002D
ENCODING 45
SWIDTH 281 0
DWIDTH 4 0
BBX 3 1 0 2
BITMAP
E0
ENDCHAR
STARTCHAR uni002E
ENCODING 46
SWIDTH 281 0
DWIDTH 4 0
BBX 2 1 0 0
BITMAP
40
ENDCHAR
STARTCHAR uni002F
ENCODING 47
SWIDTH 281 0
DWIDTH 4 0
BBX 3 5 0 0
BITMAP
20
20
40
80
80
ENDCHAR
STARTCHAR uni0030
ENCODING 48
SWIDTH 281 0
DWIDTH 4 0
BBX 3 5 0 0
BITMAP
40
A0
E0
A0
40
ENDCHAR
STARTCHAR uni0031
ENCODING 49
SWIDTH 281 0
DWIDTH 4 0
BBX 2 5 0 0
BITMAP
40
C0
40
40
40
ENDCHAR
STARTCHAR uni0032
ENCODING 50
SWIDTH 281 0
DWIDTH 4 0
BBX 3 5 0 0
BITMAP
C0
20
40
80
E0
ENDCHAR
STARTCHAR uni0033
ENCODING 51
SWIDTH 281 0
DWIDTH 4 0
BBX 3 5 0 0
BITMAP
C0
20
40
20
C0
ENDCHAR
STARTCHAR uni0034
ENCODING 52
SWIDTH 281 0
DWIDTH 4 0
BBX 3 5 0 0
BITMAP
20
40
A0
E0
20
ENDCHAR
STARTCHAR uni0035
ENCODING 53
SWIDTH 281 0
DWIDTH 4 0
BBX 3 5 0 0
BITMAP
E0
80
C0
20
C0
ENDCHAR
STARTCHAR uni0036
ENCODING 54
SWIDTH 281 0
DWIDTH 4 0
BBX 3 5 0 0
BITMAP
40
80
C0
A0
40
ENDCHAR
STARTCHAR uni0037
ENCODING 55
SWIDTH 281 0
DWIDTH 4 0
BBX 3 5 0 0
BITMAP
E0
20
20
40
40
ENDCHAR
STARTCHAR uni0038
ENCODING 56
SWIDTH 281 0
DWIDTH 4 0
BBX 3 5 0 0
BITMAP
40
A0
40
A0
40
ENDCHAR
STARTCHAR uni0039
ENCODING 57
SWIDTH 281 0
DWIDTH 4 0
BBX 3 5 0 0
BITMAP
40
A0
60
20
40
ENDCHAR
STARTCHAR uni003A
ENCODING 58
SWIDTH 281 0
DWIDTH 4 0
BBX 2 3 0 0
BITMAP
40
00
40
ENDCHAR
STARTCHAR uni003B
ENCODING 59
SWIDTH 281 0
DWIDTH 4 0
BBX 2 4 0 -1
BITMAP
40
00
40
80
ENDCHAR
STARTCHAR uni003C
ENCODING 60
SWIDTH 281 0
DWIDTH 4 0
BBX 3 5 0 0
BITMAP
20
40
80
40
20
ENDCHAR
STARTCHAR uni003D
ENCODING 61
SWIDTH 281 0
DWIDTH 4 0
BBX 3 3 0 1
BITMAP
E0
00
E0
ENDCHAR
STARTCHAR uni003E
ENCODING 62
SWIDTH 281 0
DWIDTH 4 0
BBX 3 5 0 0
BITMAP
80
40
20
40
80
ENDCHAR
STARTCHAR uni003F
ENCODING 63
SWIDTH 281 0
DWIDTH 4 0
BBX 3 5 0 0
BITMAP
C0
20
40
00
40
ENDCHAR
STARTCHAR uni0040
ENCODING 64
SWIDTH 281 0
DWIDTH 4 0
BBX 3 6 0 -1
BITMAP
40
A0
80
E0
E0
40
ENDCHAR
STARTCHAR uni0041
ENCODING 65
SWIDTH 281 0
DWIDTH 4 0
BBX 3 5 0 0
BITMAP
40
A0
A0
E0
A0
ENDCHAR
STARTCHAR uni0042
ENCODING 66
SWIDTH 281 0
DWIDTH 4 0
BBX 3 5 0 0
BITMAP
C0
A0
C0
A0
C0
ENDCHAR
STARTCHAR uni0043
ENCODING 67
SWIDTH 281 0
DWIDTH 4 0
BBX 3 5 0 0
BITMAP
60
80
80
80
60
ENDCHAR
STARTCHAR uni0044
ENCODING 68
SWIDTH 281 0
DWIDTH 4 0
BBX 3 5 0 0
BITMAP
C0
A0
A0
A0
C0
ENDCHAR
STARTCHAR uni0045
ENCODING 69
SWIDTH 281 0
DWIDTH 4 0
BBX 3 5 0 0
BITMAP
E0
80
C0
80
E0
ENDCHAR
STARTCHAR uni0046
ENCODING 70
SWIDTH 281 0
DWIDTH 4 0
BBX 3 5 0 0
BITMAP
E0
80
C0
80
80
ENDCHAR
STARTCHAR uni0047
ENCODING 71
SWIDTH 281 0
DWIDTH 4 0
BBX 3 5 0 0
BITMAP
60
80
80
A0
60
ENDCHAR
STARTCHAR uni0048
ENCODING 72
SWIDTH 281 0
DWIDTH 4 0
BBX 3 5 0 0
BITMAP
A0
A0
E0
A0
A0
ENDCHAR
STARTCHAR uni0049
ENCODING 73
SWIDTH 281 0
DWIDTH 4 0
BBX 3 5 0 0
BITMAP
E0
40
40
40
E0
ENDCHAR
STARTCHAR uni004A
ENCODING 74
SWIDTH 281 0
DWIDTH 4 0
BBX 3 6 0 -1
BITMAP
E0
40
40
40
40
80
ENDCHAR
STARTCHAR uni004B
ENCODING 75
SWIDTH 281 0
DWIDTH 4 0
BBX 3 5 0 0
BITMAP
A0
A0
C0
A0
A0
ENDCHAR
STARTCHAR uni004C
ENCODING 76
SWIDTH 281 0
DWIDTH 4 0
BBX 3 5 0 0
BITMAP
80
80
80
80
E0
ENDCHAR
STARTCHAR uni004D
ENCODING 77
SWIDTH 281 0
DWIDTH 4 0
BBX 3 5 0 0
BITMAP
A0
E0
E0
A0
A0
ENDCHAR
STARTCHAR uni004E
ENCODING 78
SWIDTH 281 0
DWIDTH 4 0
BBX 3 5 0 0
BITMAP
A0
E0
E0
E0
A0
ENDCHAR
STARTCHAR uni004F
ENCODING 79
SWIDTH 281 0
DWIDTH 4 0
BBX 3 5 0 0
BITMAP
40
A0
A0
A0
40
ENDCHAR
STARTCHAR uni0050
ENCODING 80
SWIDTH 281 0
DWIDTH 4 0
BBX 3 5 0 0
BITMAP
C0
A0
C0
80
80
ENDCHAR
STARTCHAR uni0051
ENCODING 81
SWIDTH 281 0
DWIDTH 4 0
BBX 3 6 0 -1
BITMAP
40
A0
A0
A0
40
20
ENDCHAR
STARTCHAR uni0052
ENCODING 82
SWIDTH 281 0
DWIDTH 4 0
BBX 3 5 0 0
BITMAP
C0
A0
C0
A0
A0
ENDCHAR
STARTCHAR uni0053
ENCODING 83
SWIDTH 281 0
DWIDTH 4 0
BBX 3 5 0 0
BITMAP
60
80
40
20
C0
ENDCHAR
STARTCHAR uni0054
ENCODING 84
SWIDTH 281 0
DWIDTH 4 0
BBX 3 5 0 0
BITMAP
E0
40
40
40
40
ENDCHAR
STARTCHAR uni0055
ENCODING 85
SWIDTH 281 0
DWIDTH 4 0
BBX 3 5 0 0
BITMAP
A0
A0
A0
A0
60
ENDCHAR
STARTCHAR uni0056
ENCODING 86
SWIDTH 281 0
DWIDTH 4 0
BBX 3 5 0 0
BITMAP
A0
A0
A0
A0
40
ENDCHAR
STARTCHAR uni0057
ENCODING 87
SWIDTH 281 0
DWIDTH 4 0
BBX 3 5 0 0
BITMAP
A0
A0
E0
E0
A0
ENDCHAR
STARTCHAR uni0058
ENCODING 88
SWIDTH 281 0
DWIDTH 4 0
BBX 3 5 0 0
BITMAP
A0
A0
40
A0
A0
ENDCHAR
STARTCHAR uni0059
ENCODING 89
SWIDTH 281 0
DWIDTH 4 0
BBX 3 5 0 0
BITMAP
A0
A0
40
40
40
ENDCHAR
STARTCHAR uni005A
ENCODING 90
SWIDTH 281 0
DWIDTH 4 0
BBX 3 5 0 0
BITMAP
E0
20
40
80
E0
ENDCHAR
STARTCHAR uni005B
ENCODING 91
SWIDTH 281 0
DWIDTH 4 0
BBX 2 5 0 0
BITMAP
C0
80
80
80
C0
ENDCHAR
STARTCHAR uni005C
ENCODING 92
SWIDTH 281 0
DWIDTH 4 0
BBX 3 5 0 0
BITMAP
80
80
40
20
20
ENDCHAR
STARTCHAR uni005D
ENCODING 93
SWIDTH 281 0
DWIDTH 4 0
BBX 2 5 1 0
BITMAP
C0
40
40
40
C0
ENDCHAR
STARTCHAR uni005E
ENCODING 94
SWIDTH 281 0
DWIDTH 4 0
BBX 3 2 0 3
BITMAP
40
A0
ENDCHAR
STARTCHAR uni005F
ENCODING 95
SWIDTH 281 0
DWIDTH 4 0
BBX 3 1 0 0
BITMAP
E0
ENDCHAR
STARTCHAR uni0060
ENCODING 96
SWIDTH 281 0
DWIDTH 4 0
BBX 2 2 1 3
BITMAP
80
40
ENDCHAR
STARTCHAR uni0061
ENCODING 97
SWIDTH 281 0
DWIDTH 4 0
BBX 3 3 0 0
BITMAP
60
A0
E0
ENDCHAR
STARTCHAR uni0062
ENCODING 98
SWIDTH 281 0
DWIDTH 4 0
BBX 3 5 0 0
BITMAP
80
80
C0
A0
C0
ENDCHAR
STARTCHAR uni0063
ENCODING 99
SWIDTH 281 0
DWIDTH 4 0
BBX 3 3 0 0
BITMAP
60
80
60
ENDCHAR
STARTCHAR uni0064
ENCODING 100
SWIDTH 281 0
DWIDTH 4 0
BBX 3 5 0 0
BITMAP
20
20
60
A0
60
ENDCHAR
STARTCHAR uni0065
ENCODING 101
SWIDTH 281 0
DWIDTH 4 0
BBX 3 3 0 0
BITMAP
E0
A0
C0
ENDCHAR
STARTCHAR uni0066
ENCODING 102
SWIDTH 281 0
DWIDTH 4 0
BBX 3 5 0 0
BITMAP
20
40
E0
40
40
ENDCHAR
STARTCHAR uni0067
ENCODING 103
SWIDTH 281 0
DWIDTH 4 0
BBX 3 4 0 -1
BITMAP
60
A0
60
C0
ENDCHAR
STARTCHAR uni0068
ENCODING 104
SWIDTH 281 0
DWIDTH 4 0
BBX 3 5 0 0
BITMAP
80
80
C0
A0
A0
ENDCHAR
STARTCHAR uni0069
ENCODING 105
SWIDTH 281 0
DWIDTH 4 0
BBX 1 5 1 0
BITMAP
80
00
80
80
80
ENDCHAR
STARTCHAR uni006A
ENCODING 106
SWIDTH 281 0
DWIDTH 4 0
BBX 2 6 0 -1
BITMAP
40
00
40
40
40
80
ENDCHAR
STARTCHAR uni006B
ENCODING 107
SWIDTH 281 0
DWIDTH 4 0
BBX 3 5 0 0
BITMAP
80
80
A0
C0
A0
ENDCHAR
STARTCHAR uni006C
ENCODING 108
SWIDTH 281 0
DWIDTH 4 0
BBX 2 5 0 0
BITMAP
80
40
40
40
40
ENDCHAR
STARTCHAR uni006D
ENCODING 109
SWIDTH 281 0
DWIDTH 4 0
BBX 3 3 0 0
BITMAP
E0
E0
A0
ENDCHAR
STARTCHAR uni006E
ENCODING 110
SWIDTH 281 0
DWIDTH 4 0
BBX 3 3 0 0
BITMAP
C0
A0
A0
ENDCHAR
STARTCHAR uni006F
ENCODING 111
SWIDTH 281 0
DWIDTH 4 0
BBX 3 3 0 0
BITMAP
40
A0
40
ENDCHAR
STARTCHAR uni0070
ENCODING 112
SWIDTH 281 0
DWIDTH 4 0
BBX 3 4 0 -1
BITMAP
C0
A0
C0
80
ENDCHAR
STARTCHAR uni0071
ENCODING 113
SWIDTH 281 0
DWIDTH 4 0
BBX 3 4 0 -1
BITMAP
60
A0
60
20
ENDCHAR
STARTCHAR uni0072
ENCODING 114
SWIDTH 281 0
DWIDTH 4 0
BBX 3 3 0 0
BITMAP
40
A0
80
ENDCHAR
STARTCHAR uni0073
ENCODING 115
SWIDTH 281 0
DWIDTH 4 0
BBX 3 3 0 0
BITMAP
60
40
C0
ENDCHAR
STARTCHAR uni0074
ENCODING 116
SWIDTH 281 0
DWIDTH 4 0
BBX 3 5 0 0
BITMAP
40
E0
40
40
20
ENDCHAR
STARTCHAR uni0075
ENCODING 117
SWIDTH 281 0
DWIDTH 4 0
BBX 3 3 0 0
BITMAP
A0
A0
60
ENDCHAR
STARTCHAR uni0076
ENCODING 118
SWIDTH 281 0
DWIDTH 4 0
BBX 3 3 0 0
BITMAP
A0
A0
40
ENDCHAR
STARTCHAR uni0077
ENCODING 119
SWIDTH 281 0
DWIDTH 4 0
BBX 3 3 0 0
BITMAP
A0
E0
E0
ENDCHAR
STARTCHAR uni0078
ENCODING 120
SWIDTH 281 0
DWIDTH 4 0
BBX 3 3 0 0
BITMAP
A0
40
A0
ENDCHAR
STARTCHAR uni0079
ENCODING 121
SWIDTH 281 0
DWIDTH 4 0
BBX 3 4 0 -1
BITMAP
A0
A0
60
C0
ENDCHAR
STARTCHAR uni007A
ENCODING 122
SWIDTH 281 0
DWIDTH 4 0
BBX 3 3 0 0
BITMAP
C0
40
60
ENDCHAR
STARTCHAR uni007B
ENCODING 123
SWIDTH 281 0
DWIDTH 4 0
BBX 3 5 0 0
BITMAP
60
40
80
40
60
ENDCHAR
STARTCHAR uni007C
ENCODING 124
SWIDTH 281 0
DWIDTH 4 0
BBX 2 5 0 0
BITMAP
40
40
40
40
40
ENDCHAR
STARTCHAR uni007D
ENCODING 125
SWIDTH 281 0
DWIDTH 4 0
BBX 3 5 0 0
BITMAP
C0
40
20
40
C0
ENDCHAR
STARTCHAR uni007E
ENCODING 126
SWIDTH 281 0
DWIDTH 4 0
BBX 3 2 0 1
BITMAP
C0
60
ENDCHAR
STARTCHAR char161
ENCODING 161
SWIDTH 281 0
DWIDTH 4 0
BBX 2 5 0 -1
BITMAP
40
00
40
40
40
ENDCHAR
STARTCHAR char162
ENCODING 162
SWIDTH 281 0
DWIDTH 4 0
BBX 3 5 0 -1
BITMAP
40
E0
80
E0
40
ENDCHAR
STARTCHAR char163
ENCODING 163
SWIDTH 281 0
DWIDTH 4 0
BBX 3 5 0 0
BITMAP
60
40
C0
40
E0
ENDCHAR
STARTCHAR char164
ENCODING 164
SWIDTH 281 0
DWIDTH 4 0
BBX 3 6 0 -1
BITMAP
A0
00
40
40
00
A0
ENDCHAR
STARTCHAR char165
ENCODING 165
SWIDTH 281 0
DWIDTH 4 0
BBX 3 5 0 0
BITMAP
A0
E0
A0
40
40
ENDCHAR
STARTCHAR char166
ENCODING 166
SWIDTH 281 0
DWIDTH 4 0
BBX 2 5 1 0
BITMAP
80
80
00
80
80
ENDCHAR
STARTCHAR char167
ENCODING 167
SWIDTH 281 0
DWIDTH 4 0
BBX 3 6 0 -1
BITMAP
E0
80
E0
E0
20
E0
ENDCHAR
STARTCHAR char168
ENCODING 168
SWIDTH 281 0
DWIDTH 4 0
BBX 3 1 0 4
BITMAP
A0
ENDCHAR
STARTCHAR char169
ENCODING 169
SWIDTH 281 0
DWIDTH 4 0
BBX 3 5 0 0
BITMAP
E0
A0
60
A0
E0
ENDCHAR
STARTCHAR char170
ENCODING 170
SWIDTH 281 0
DWIDTH 4 0
BBX 3 4 0 1
BITMAP
E0
20
E0
E0
ENDCHAR
STARTCHAR char171
ENCODING 171
SWIDTH 281 0
DWIDTH 4 0
BBX 3 6 0 -1
BITMAP
20
60
20
40
C0
40
ENDCHAR
STARTCHAR char172
ENCODING 172
SWIDTH 281 0
DWIDTH 4 0
BBX 3 2 0 1
BITMAP
E0
20
ENDCHAR
STARTCHAR char174
ENCODING 174
SWIDTH 281 0
DWIDTH 4 0
BBX 3 5 0 0
BITMAP
E0
C0
A0
A0
E0
ENDCHAR
STARTCHAR char175
ENCODING 175
SWIDTH 281 0
DWIDTH 4 0
BBX 3 1 0 4
BITMAP
E0
ENDCHAR
STARTCHAR char176
ENCODING 176
SWIDTH 281 0
DWIDTH 4 0
BBX 3 3 0 2
BITMAP
E0
A0
E0
ENDCHAR
STARTCHAR char177
ENCODING 177
SWIDTH 281 0
DWIDTH 4 0
BBX 3 4 0 0
BITMAP
40
E0
40
E0
ENDCHAR
STARTCHAR char178
ENCODING 178
SWIDTH 281 0
DWIDTH 4 0
BBX 3 4 0 1
BITMAP
C0
20
40
E0
ENDCHAR
STARTCHAR char179
ENCODING 179
SWIDTH 281 0
DWIDTH 4 0
BBX 3 4 0 1
BITMAP
E0
20
60
E0
ENDCHAR
STARTCHAR char180
ENCODING 180
SWIDTH 281 0
DWIDTH 4 0
BBX 2 2 1 3
BITMAP
40
80
ENDCHAR
STARTCHAR char181
ENCODING 181
SWIDTH 281 0
DWIDTH 4 0
BBX 3 4 0 -1
BITMAP
A0
A0
C0
80
ENDCHAR
STARTCHAR char182
ENCODING 182
SWIDTH 281 0
DWIDTH 4 0
BBX 3 5 0 0
BITMAP
E0
C0
20
40
20
ENDCHAR
STARTCHAR char183
ENCODING 183
SWIDTH 281 0
DWIDTH 4 0
BBX 1 1 1 1
BITMAP
80
ENDCHAR
STARTCHAR char184
ENCODING 184
SWIDTH 281 0
DWIDTH 4 0
BBX 2 1 0 -1
BITMAP
C0
ENDCHAR
STARTCHAR char185
ENCODING 185
SWIDTH 281 0
DWIDTH 4 0
BBX 3 4 0 1
BITMAP
40
C0
40
E0
ENDCHAR
STARTCHAR char186
ENCODING 186
SWIDTH 281 0
DWIDTH 4 0
BBX 3 5 0 0
BITMAP
E0
A0
E0
00
E0
ENDCHAR
STARTCHAR char187
ENCODING 187
SWIDTH 281 0
DWIDTH 4 0
BBX 3 6 0 -1
BITMAP
80
C0
80
40
60
40
ENDCHAR
STARTCHAR char188
ENCODING 188
SWIDTH 281 0
DWIDTH 4 0
BBX 3 6 0 -1
BITMAP
40
40
00
A0
E0
20
ENDCHAR
STARTCHAR char189
ENCODING 189
SWIDTH 281 0
DWIDTH 4 0
BBX 3 6 0 -1
BITMAP
40
40
00
80
40
E0
ENDCHAR
STARTCHAR char191
ENCODING 191
SWIDTH 281 0
DWIDTH 4 0
BBX 3 5 0 -1
BITMAP
40
00
40
80
60
ENDCHAR
STARTCHAR char192
ENCODING 192
SWIDTH 281 0
DWIDTH 4 0
BBX 3 5 0 0
BITMAP
80
40
A0
E0
A0
ENDCHAR
STARTCHAR char193
ENCODING 193
SWIDTH 281 0
DWIDTH 4 0
BBX 3 5 0 0
BITMAP
20
40
A0
E0
A0
ENDCHAR
STARTCHAR char194
ENCODING 194
SWIDTH 281 0
DWIDTH 4 0
BBX 3 5 0 0
BITMAP
40
A0
40
E0
A0
ENDCHAR
STARTCHAR char195
ENCODING 195
SWIDTH 281 0
DWIDTH 4 0
BBX 3 5 0 0
BITMAP
C0
60
40
E0
A0
ENDCHAR
STARTCHAR char196
ENCODING 196
SWIDTH 281 0
DWIDTH 4 0
BBX 3 5 0 0
BITMAP
A0
40
A0
E0
A0
ENDCHAR
STARTCHAR char197
ENCODING 197
SWIDTH 281 0
DWIDTH 4 0
BBX 3 5 0 0
BITMAP
40
00
40
E0
A0
ENDCHAR
STARTCHAR char198
ENCODING 198
SWIDTH 281 0
DWIDTH 4 0
BBX 3 5 0 0
BITMAP
60
C0
E0
C0
A0
ENDCHAR
STARTCHAR char199
ENCODING 199
SWIDTH 281 0
DWIDTH 4 0
BBX 3 6 0 -1
BITMAP
60
80
80
80
60
80
ENDCHAR
STARTCHAR char200
ENCODING 200
SWIDTH 281 0
DWIDTH 4 0
BBX 3 5 0 0
BITMAP
80
60
80
C0
E0
ENDCHAR
STARTCHAR char201
ENCODING 201
SWIDTH 281 0
DWIDTH 4 0
BBX 3 5 0 0
BITMAP
20
C0
80
C0
E0
ENDCHAR
STARTCHAR char202
ENCODING 202
SWIDTH 281 0
DWIDTH 4 0
BBX 3 5 0 0
BITMAP
40
A0
80
C0
E0
ENDCHAR
STARTCHAR char203
ENCODING 203
SWIDTH 281 0
DWIDTH 4 0
BBX 3 5 0 0
BITMAP
A0
40
80
C0
E0
ENDCHAR
STARTCHAR char204
ENCODING 204
SWIDTH 281 0
DWIDTH 4 0
BBX 3 5 0 0
BITMAP
80
40
00
40
E0
ENDCHAR
STARTCHAR char205
ENCODING 205
SWIDTH 281 0
DWIDTH 4 0
BBX 3 5 0 0
BITMAP
20
40
00
40
E0
ENDCHAR
STARTCHAR char206
ENCODING 206
SWIDTH 281 0
DWIDTH 4 0
BBX 3 5 0 0
BITMAP
40
A0
00
40
E0
ENDCHAR
STARTCHAR char207
ENCODING 207
SWIDTH 281 0
DWIDTH 4 0
BBX 3 5 0 0
BITMAP
A0
00
E0
40
E0
ENDCHAR
STARTCHAR char208
ENCODING 208
SWIDTH 281 0
DWIDTH 4 0
BBX 3 5 0 0
BITMAP
C0
A0
E0
A0
C0
ENDCHAR
STARTCHAR char209
ENCODING 209
SWIDTH 281 0
DWIDTH 4 0
BBX 3 5 0 0
BITMAP
C0
60
C0
E0
A0
ENDCHAR
STARTCHAR char210
ENCODING 210
SWIDTH 281 0
DWIDTH 4 0
BBX 3 5 0 0
BITMAP
80
40
A0
A0
40
ENDCHAR
STARTCHAR char211
ENCODING 211
SWIDTH 281 0
DWIDTH 4 0
BBX 3 5 0 0
BITMAP
20
40
A0
A0
40
ENDCHAR
STARTCHAR char212
ENCODING 212
SWIDTH 281 0
DWIDTH 4 0
BBX 3 6 0 -1
BITMAP
40
A0
40
A0
A0
40
ENDCHAR
STARTCHAR char213
ENCODING 213
SWIDTH 281 0
DWIDTH 4 0
BBX 3 5 0 0
BITMAP
C0
60
A0
A0
40
ENDCHAR
STARTCHAR char214
ENCODING 214
SWIDTH 281 0
DWIDTH 4 0
BBX 3 5 0 0
BITMAP
A0
40
A0
A0
40
ENDCHAR
STARTCHAR char215
ENCODING 215
SWIDTH 281 0
DWIDTH 4 0
BBX 3 3 0 1
BITMAP
A0
40
A0
ENDCHAR
STARTCHAR char216
ENCODING 216
SWIDTH 281 0
DWIDTH 4 0
BBX 3 5 0 0
BITMAP
60
A0
E0
A0
C0
ENDCHAR
STARTCHAR char217
ENCODING 217
SWIDTH 281 0
DWIDTH 4 0
BBX 3 5 0 0
BITMAP
80
20
A0
A0
60
ENDCHAR
STARTCHAR char218
ENCODING 218
SWIDTH 281 0
DWIDTH 4 0
BBX 3 5 0 0
BITMAP
20
80
A0
A0
60
ENDCHAR
STARTCHAR char219
ENCODING 219
SWIDTH 281 0
DWIDTH 4 0
BBX 3 5 0 0
BITMAP
40
A0
00
A0
60
ENDCHAR
STARTCHAR char220
ENCODING 220
SWIDTH 281 0
DWIDTH 4 0
BBX 3 5 0 0
BITMAP
A0
00
A0
A0
60
ENDCHAR
STARTCHAR char221
ENCODING 221
SWIDTH 281 0
DWIDTH 4 0
BBX 3 6 0 -1
BITMAP
20
40
00
A0
40
40
ENDCHAR
STARTCHAR char222
ENCODING 222
SWIDTH 281 0
DWIDTH 4 0
BBX 3 6 0 -1
BITMAP
80
C0
A0
A0
C0
80
ENDCHAR
STARTCHAR char223
ENCODING 223
SWIDTH 281 0
DWIDTH 4 0
BBX 3 6 0 -1
BITMAP
40
A0
C0
A0
A0
80
ENDCHAR
STARTCHAR char224
ENCODING 224
SWIDTH 281 0
DWIDTH 4 0
BBX 3 5 0 0
BITMAP
80
00
60
A0
E0
ENDCHAR
STARTCHAR char225
ENCODING 225
SWIDTH 281 0
DWIDTH 4 0
BBX 3 5 0 0
BITMAP
20
00
60
A0
E0
ENDCHAR
STARTCHAR char226
ENCODING 226
SWIDTH 281 0
DWIDTH 4 0
BBX 3 5 0 0
BITMAP
40
A0
00
60
E0
ENDCHAR
STARTCHAR char227
ENCODING 227
SWIDTH 281 0
DWIDTH 4 0
BBX 3 5 0 0
BITMAP
C0
60
00
60
E0
ENDCHAR
STARTCHAR char228
ENCODING 228
SWIDTH 281 0
DWIDTH 4 0
BBX 3 5 0 0
BITMAP
A0
00
60
A0
E0
ENDCHAR
STARTCHAR char229
ENCODING 229
SWIDTH 281 0
DWIDTH 4 0
BBX 3 5 0 0
BITMAP
40
00
60
A0
E0
ENDCHAR
STARTCHAR char230
ENCODING 230
SWIDTH 281 0
DWIDTH 4 0
BBX 3 4 0 0
BITMAP
E0
60
C0
E0
ENDCHAR
STARTCHAR char231
ENCODING 231
SWIDTH 281 0
DWIDTH 4 0
BBX 3 4 0 -1
BITMAP
60
80
60
80
ENDCHAR
STARTCHAR char232
ENCODING 232
SWIDTH 281 0
DWIDTH 4 0
BBX 3 5 0 0
BITMAP
80
00
E0
A0
C0
ENDCHAR
STARTCHAR char233
ENCODING 233
SWIDTH 281 0
DWIDTH 4 0
BBX 3 5 0 0
BITMAP
20
00
E0
A0
C0
ENDCHAR
STARTCHAR char234
ENCODING 234
SWIDTH 281 0
DWIDTH 4 0
BBX 3 5 0 0
BITMAP
40
A0
00
E0
C0
ENDCHAR
STARTCHAR char235
ENCODING 235
SWIDTH 281 0
DWIDTH 4 0
BBX 3 5 0 0
BITMAP
A0
00
E0
A0
C0
ENDCHAR
STARTCHAR char236
ENCODING 236
SWIDTH 281 0
DWIDTH 4 0
BBX 2 5 0 0
BITMAP
80
40
00
40
40
ENDCHAR
STARTCHAR char237
ENCODING 237
SWIDTH 281 0
DWIDTH 4 0
BBX 3 5 0 0
BITMAP
20
40
00
40
40
ENDCHAR
STARTCHAR char238
ENCODING 238
SWIDTH 281 0
DWIDTH 4 0
BBX 3 5 0 0
BITMAP
40
A0
00
40
40
ENDCHAR
STARTCHAR char239
ENCODING 239
SWIDTH 281 0
DWIDTH 4 0
BBX 3 5 0 0
BITMAP
A0
00
40
40
40
ENDCHAR
STARTCHAR char240
ENCODING 240
SWIDTH 281 0
DWIDTH 4 0
BBX 3 5 0 0
BITMAP
C0
20
60
A0
40
ENDCHAR
STARTCHAR char241
ENCODING 241
SWIDTH 281 0
DWIDTH 4 0
BBX 3 5 0 0
BITMAP
C0
60
00
C0
A0
ENDCHAR
STARTCHAR char242
ENCODING 242
SWIDTH 281 0
DWIDTH 4 0
BBX 3 5 0 0
BITMAP
80
00
40
A0
40
ENDCHAR
STARTCHAR char243
ENCODING 243
SWIDTH 281 0
DWIDTH 4 0
BBX 3 5 0 0
BITMAP
20
00
40
A0
40
ENDCHAR
STARTCHAR char244
ENCODING 244
SWIDTH 281 0
DWIDTH 4 0
BBX 3 5 0 0
BITMAP
40
A0
00
E0
E0
ENDCHAR
STARTCHAR char245
ENCODING 245
SWIDTH 281 0
DWIDTH 4 0
BBX 3 5 0 0
BITMAP
C0
60
00
E0
E0
ENDCHAR
STARTCHAR char246
ENCODING 246
SWIDTH 281 0
DWIDTH 4 0
BBX 3 5 0 0
BITMAP
A0
00
40
A0
40
ENDCHAR
STARTCHAR char247
ENCODING 247
SWIDTH 281 0
DWIDTH 4 0
BBX 3 5 0 0
BITMAP
40
00
E0
00
40
ENDCHAR
STARTCHAR char248
ENCODING 248
SWIDTH 281 0
DWIDTH 4 0
BBX 3 5 0 -1
BITMAP
40
40
A0
40
40
ENDCHAR
STARTCHAR char249
ENCODING 249
SWIDTH 281 0
DWIDTH 4 0
BBX 3 5 0 0
BITMAP
80
40
00
A0
60
ENDCHAR
STARTCHAR char250
ENCODING 250
SWIDTH 281 0
DWIDTH 4 0
BBX 3 5 0 0
BITMAP
20
40
00
A0
60
ENDCHAR
STARTCHAR char251
ENCODING 251
SWIDTH 281 0
DWIDTH 4 0
BBX 3 5 0 0
BITMAP
40
A0
00
A0
60
ENDCHAR
STARTCHAR char252
ENCODING 252
SWIDTH 281 0
DWIDTH 4 0
BBX 3 5 0 0
BITMAP
A0
00
00
A0
60
ENDCHAR
STARTCHAR char253
ENCODING 253
SWIDTH 281 0
DWIDTH 4 0
BBX 3 6 0 -1
BITMAP
20
00
A0
A0
40
80
ENDCHAR
STARTCHAR char254
ENCODING 254
SWIDTH 281 0
DWIDTH 4 0
BBX 3 5 0 -1
BITMAP
80
C0
A0
C0
80
ENDCHAR
STARTCHAR char255
ENCODING 255
SWIDTH 281 0
DWIDTH 4 0
BBX 3 6 0 -1
BITMAP
A0
00
A0
A0
40
80
ENDCHAR
STARTCHAR char338
ENCODING 338
SWIDTH 281 0
DWIDTH 4 0
BBX 3 5 0 0
BITMAP
60
C0
E0
C0
E0
ENDCHAR
STARTCHAR char339
ENCODING 339
SWIDTH 281 0
DWIDTH 4 0
BBX 3 4 0 0
BITMAP
E0
E0
C0
E0
ENDCHAR
STARTCHAR char8208
ENCODING 8208
SWIDTH 281 0
DWIDTH 4 0
BBX 2 1 0 2
BITMAP
C0
ENDCHAR
STARTCHAR char8209
ENCODING 8209
SWIDTH 281 0
DWIDTH 4 0
BBX 2 1 0 2
BITMAP
C0
ENDCHAR
STARTCHAR char8210
ENCODING 8210
SWIDTH 281 0
DWIDTH 4 0
BBX 3 1 0 2
BITMAP
E0
ENDCHAR
STARTCHAR char8211
ENCODING 8211
SWIDTH 281 0
DWIDTH 4 0
BBX 3 1 0 2
BITMAP
E0
ENDCHAR
STARTCHAR char8212
ENCODING 8212
SWIDTH 281 0
DWIDTH 4 0
BBX 3 1 0 2
BITMAP
E0
ENDCHAR
STARTCHAR char8213
ENCODING 8213
SWIDTH 281 0
DWIDTH 4 0
BBX 3 1 0 2
BITMAP
E0
ENDCHAR
STARTCHAR char8214
ENCODING 8214
SWIDTH 281 0
DWIDTH 4 0
BBX 3 5 0 0
BITMAP
A0
A0
A0
A0
A0
ENDCHAR
STARTCHAR char8215
ENCODING 8215
SWIDTH 281 0
DWIDTH 4 0
BBX 3 3 0 0
BITMAP
E0
00
E0
ENDCHAR
STARTCHAR char8216
ENCODING 8216
SWIDTH 281 0
DWIDTH 4 0
BBX 2 2 0 3
BITMAP
80
40
ENDCHAR
STARTCHAR char8217
ENCODING 8217
SWIDTH 281 0
DWIDTH 4 0
BBX 2 2 1 3
BITMAP
40
80
ENDCHAR
STARTCHAR char8218
ENCODING 8218
SWIDTH 281 0
DWIDTH 4 0
BBX 3 2 0 0
BITMAP
20
40
ENDCHAR
STARTCHAR char8219
ENCODING 8219
SWIDTH 281 0
DWIDTH 4 0
BBX 2 2 0 2
BITMAP
80
40
ENDCHAR
STARTCHAR char8220
ENCODING 8220
SWIDTH 281 0
DWIDTH 4 0
BBX 3 4 0 1
BITMAP
40
20
80
40
ENDCHAR
STARTCHAR char8221
ENCODING 8221
SWIDTH 281 0
DWIDTH 4 0
BBX 3 4 0 1
BITMAP
40
80
20
40
ENDCHAR
STARTCHAR char8222
ENCODING 8222
SWIDTH 281 0
DWIDTH 4 0
BBX 3 4 0 -1
BITMAP
40
80
20
40
ENDCHAR
STARTCHAR char8223
ENCODING 8223
SWIDTH 281 0
DWIDTH 4 0
BBX 3 4 0 1
BITMAP
40
80
20
40
ENDCHAR
STARTCHAR char8224
ENCODING 8224
SWIDTH 281 0
DWIDTH 4 0
BBX 3 4 0 1
BITMAP
40
E0
40
40
ENDCHAR
STARTCHAR char8225
ENCODING 8225
SWIDTH 281 0
DWIDTH 4 0
BBX 3 5 0 0
BITMAP
40
E0
40
E0
40
ENDCHAR
STARTCHAR char8226
ENCODING 8226
SWIDTH 281 0
DWIDTH 4 0
BBX 3 3 0 1
BITMAP
E0
E0
E0
ENDCHAR
STARTCHAR char8227
ENCODING 8227
SWIDTH 281 0
DWIDTH 4 0
BBX 2 3 0 1
BITMAP
80
C0
80
ENDCHAR
STARTCHAR char8228
ENCODING 8228
SWIDTH 281 0
DWIDTH 4 0
BBX 2 1 0 0
BITMAP
40
ENDCHAR
STARTCHAR char8229
ENCODING 8229
SWIDTH 281 0
DWIDTH 4 0
BBX 3 1 0 0
BITMAP
A0
ENDCHAR
STARTCHAR char8230
ENCODING 8230
SWIDTH 281 0
DWIDTH 4 0
BBX 3 4 0 -1
BITMAP
80
20
00
40
ENDCHAR
STARTCHAR char8231
ENCODING 8231
SWIDTH 281 0
DWIDTH 4 0
BBX 1 1 1 2
BITMAP
80
ENDCHAR
STARTCHAR char8242
ENCODING 8242
SWIDTH 281 0
DWIDTH 4 0
BBX 1 2 0 3
BITMAP
80
80
ENDCHAR
STARTCHAR char8243
ENCODING 8243
SWIDTH 281 0
DWIDTH 4 0
BBX 3 2 0 3
BITMAP
A0
A0
ENDCHAR
STARTCHAR char8244
ENCODING 8244
SWIDTH 281 0
DWIDTH 4 0
BBX 3 5 0 0
BITMAP
A0
A0
00
40
40
ENDCHAR
STARTCHAR char8242
ENCODING 8245
SWIDTH 281 0
DWIDTH 4 0
BBX 1 2 0 3
BITMAP
80
80
ENDCHAR
STARTCHAR char8243
ENCODING 8246
SWIDTH 281 0
DWIDTH 4 0
BBX 3 2 0 3
BITMAP
A0
A0
ENDCHAR
STARTCHAR char8244
ENCODING 8247
SWIDTH 281 0
DWIDTH 4 0
BBX 3 5 0 0
BITMAP
40
40
00
A0
A0
ENDCHAR
STARTCHAR char8248
ENCODING 8248
SWIDTH 281 0
DWIDTH 4 0
BBX 3 2 0 0
BITMAP
40
A0
ENDCHAR
STARTCHAR char8249
ENCODING 8249
SWIDTH 281 0
DWIDTH 4 0
BBX 2 3 0 1
BITMAP
40
80
40
ENDCHAR
STARTCHAR char8250
ENCODING 8250
SWIDTH 281 0
DWIDTH 4 0
BBX 2 3 1 1
BITMAP
80
40
80
ENDCHAR
STARTCHAR char8252
ENCODING 8252
SWIDTH 281 0
DWIDTH 4 0
BBX 3 5 0 0
BITMAP
A0
A0
A0
00
A0
ENDCHAR
STARTCHAR char8253
ENCODING 8253
SWIDTH 281 0
DWIDTH 4 0
BBX 3 5 0 0
BITMAP
C0
60
40
00
40
ENDCHAR
STARTCHAR char8254
ENCODING 8254
SWIDTH 281 0
DWIDTH 4 0
BBX 3 1 0 4
BITMAP
E0
ENDCHAR
STARTCHAR char8255
ENCODING 8255
SWIDTH 281 0
DWIDTH 4 0
BBX 3 2 0 3
BITMAP
A0
40
ENDCHAR
STARTCHAR char8256
ENCODING 8256
SWIDTH 281 0
DWIDTH 4 0
BBX 3 2 0 3
BITMAP
40
A0
ENDCHAR
STARTCHAR char8257
ENCODING 8257
SWIDTH 281 0
DWIDTH 4 0
BBX 3 3 0 0
BITMAP
20
40
A0
ENDCHAR
STARTCHAR char8258
ENCODING 8258
SWIDTH 281 0
DWIDTH 4 0
BBX 3 3 0 0
BITMAP
40
00
A0
ENDCHAR
STARTCHAR char8259
ENCODING 8259
SWIDTH 281 0
DWIDTH 4 0
BBX 3 1 0 1
BITMAP
E0
ENDCHAR
STARTCHAR char8260
ENCODING 8260
SWIDTH 281 0
DWIDTH 4 0
BBX 3 6 0 -1
BITMAP
20
20
40
40
80
80
ENDCHAR
STARTCHAR char8261
ENCODING 8261
SWIDTH 281 0
DWIDTH 4 0
BBX 2 6 0 -1
BITMAP
C0
80
C0
C0
80
C0
ENDCHAR
STARTCHAR char8262
ENCODING 8262
SWIDTH 281 0
DWIDTH 4 0
BBX 2 6 1 -1
BITMAP
C0
40
C0
C0
40
C0
ENDCHAR
STARTCHAR char8272
ENCODING 8272
SWIDTH 281 0
DWIDTH 4 0
BBX 3 5 0 0
BITMAP
40
A0
00
A0
40
ENDCHAR
STARTCHAR char8273
ENCODING 8273
SWIDTH 281 0
DWIDTH 4 0
BBX 3 6 0 -1
BITMAP
A0
40
A0
A0
40
A0
ENDCHAR
STARTCHAR char8364
ENCODING 8364
SWIDTH 281 0
DWIDTH 4 0
BBX 3 5 0 0
BITMAP
20
40
E0
40
20
ENDCHAR
STARTCHAR char8592
ENCODING 8592
SWIDTH 281 0
DWIDTH 4 0
BBX 3 5 0 0
BITMAP
40
80
E0
80
40
ENDCHAR
STARTCHAR char8593
ENCODING 8593
SWIDTH 281 0
DWIDTH 4 0
BBX 3 5 0 0
BITMAP
40
E0
40
40
40
ENDCHAR
STARTCHAR char8594
ENCODING 8594
SWIDTH 281 0
DWIDTH 4 0
BBX 3 5 0 0
BITMAP
40
20
E0
20
40
ENDCHAR
STARTCHAR char8595
ENCODING 8595
SWIDTH 281 0
DWIDTH 4 0
BBX 3 5 0 -1
BITMAP
40
40
40
E0
40
ENDCHAR
STARTCHAR char8596
ENCODING 8596
SWIDTH 281 0
DWIDTH 4 0
BBX 3 5 0 -1
BITMAP
40
20
E0
80
40
ENDCHAR
STARTCHAR char8597
ENCODING 8597
SWIDTH 281 0
DWIDTH 4 0
BBX 3 6 0 -1
BITMAP
40
E0
40
40
E0
40
ENDCHAR
STARTCHAR char8598
ENCODING 8598
SWIDTH 281 0
DWIDTH 4 0
BBX 3 5 0 0
BITMAP
C0
C0
40
20
20
ENDCHAR
STARTCHAR char8599
ENCODING 8599
SWIDTH 281 0
DWIDTH 4 0
BBX 3 5 0 0
BITMAP
60
60
40
80
80
ENDCHAR
STARTCHAR char8600
ENCODING 8600
SWIDTH 281 0
DWIDTH 4 0
BBX 3 5 0 -1
BITMAP
80
80
40
60
60
ENDCHAR
STARTCHAR char8601
ENCODING 8601
SWIDTH 281 0
DWIDTH 4 0
BBX 3 5 0 -1
BITMAP
20
20
40
C0
C0
ENDCHAR
STARTCHAR char8656
ENCODING 8656
SWIDTH 281 0
DWIDTH 4 0
BBX 3 5 0 0
BITMAP
40
E0
80
E0
40
ENDCHAR
STARTCHAR char8658
ENCODING 8658
SWIDTH 281 0
DWIDTH 4 0
BBX 3 5 0 0
BITMAP
40
E0
20
E0
40
ENDCHAR
STARTCHAR char8682
ENCODING 8682
SWIDTH 281 0
DWIDTH 4 0
BBX 3 5 0 0
BITMAP
40
A0
00
A0
A0
ENDCHAR
STARTCHAR char8704
ENCODING 8704
SWIDTH 281 0
DWIDTH 4 0
BBX 3 5 0 0
BITMAP
A0
A0
E0
A0
40
ENDCHAR
STARTCHAR char8705
ENCODING 8705
SWIDTH 281 0
DWIDTH 4 0
BBX 3 5 0 0
BITMAP
40
A0
A0
80
60
ENDCHAR
STARTCHAR char8706
ENCODING 8706
SWIDTH 281 0
DWIDTH 4 0
BBX 3 6 0 -1
BITMAP
40
A0
20
60
A0
40
ENDCHAR
STARTCHAR char8707
ENCODING 8707
SWIDTH 281 0
DWIDTH 4 0
BBX 3 5 0 0
BITMAP
E0
20
60
20
E0
ENDCHAR
STARTCHAR char8708
ENCODING 8708
SWIDTH 281 0
DWIDTH 4 0
BBX 3 6 0 -1
BITMAP
E0
20
60
60
E0
80
ENDCHAR
STARTCHAR char8709
ENCODING 8709
SWIDTH 281 0
DWIDTH 4 0
BBX 3 5 0 -1
BITMAP
40
E0
A0
E0
40
ENDCHAR
STARTCHAR char8710
ENCODING 8710
SWIDTH 281 0
DWIDTH 4 0
BBX 3 3 0 1
BITMAP
40
A0
E0
ENDCHAR
STARTCHAR char8710
ENCODING 8711
SWIDTH 281 0
DWIDTH 4 0
BBX 3 3 0 1
BITMAP
E0
A0
40
ENDCHAR
STARTCHAR char8712
ENCODING 8712
SWIDTH 281 0
DWIDTH 4 0
BBX 3 5 0 0
BITMAP
60
80
C0
80
60
ENDCHAR
STARTCHAR char8713
ENCODING 8713
SWIDTH 281 0
DWIDTH 4 0
BBX 3 7 0 -1
BITMAP
40
60
C0
E0
C0
60
40
ENDCHAR
STARTCHAR char8714
ENCODING 8714
SWIDTH 281 0
DWIDTH 4 0
BBX 3 5 0 0
BITMAP
60
80
C0
80
60
ENDCHAR
STARTCHAR char8714
ENCODING 8715
SWIDTH 281 0
DWIDTH 4 0
BBX 3 5 0 0
BITMAP
C0
20
60
20
C0
ENDCHAR
STARTCHAR char8713
ENCODING 8716
SWIDTH 281 0
DWIDTH 4 0
BBX 3 7 0 -1
BITMAP
40
C0
60
E0
60
C0
40
ENDCHAR
STARTCHAR char8714
ENCODING 8717
SWIDTH 281 0
DWIDTH 4 0
BBX 3 5 0 0
BITMAP
C0
20
60
20
C0
ENDCHAR
STARTCHAR char8718
ENCODING 8718
SWIDTH 281 0
DWIDTH 4 0
BBX 2 2 0 1
BITMAP
C0
C0
ENDCHAR
STARTCHAR char8719
ENCODING 8719
SWIDTH 281 0
DWIDTH 4 0
BBX 3 5 0 0
BITMAP
E0
A0
A0
A0
A0
ENDCHAR
STARTCHAR char8720
ENCODING 8720
SWIDTH 281 0
DWIDTH 4 0
BBX 3 4 0 0
BITMAP
A0
A0
A0
E0
ENDCHAR
STARTCHAR char8721
ENCODING 8721
SWIDTH 281 0
DWIDTH 4 0
BBX 3 5 0 0
BITMAP
60
80
40
80
60
ENDCHAR
STARTCHAR char8722
ENCODING 8722
SWIDTH 281 0
DWIDTH 4 0
BBX 3 1 0 2
BITMAP
E0
ENDCHAR
STARTCHAR char8723
ENCODING 8723
SWIDTH 281 0
DWIDTH 4 0
BBX 3 5 0 0
BITMAP
E0
00
40
E0
40
ENDCHAR
STARTCHAR char8724
ENCODING 8724
SWIDTH 281 0
DWIDTH 4 0
BBX 3 5 0 0
BITMAP
40
00
40
E0
40
ENDCHAR
STARTCHAR char8800
ENCODING 8800
SWIDTH 281 0
DWIDTH 4 0
BBX 3 5 0 -1
BITMAP
20
E0
40
E0
80
ENDCHAR
STARTCHAR char8862
ENCODING 8862
SWIDTH 281 0
DWIDTH 4 0
BBX 3 5 0 0
BITMAP
E0
A0
00
A0
E0
ENDCHAR
STARTCHAR char8863
ENCODING 8863
SWIDTH 281 0
DWIDTH 4 0
BBX 3 5 0 0
BITMAP
E0
E0
00
E0
E0
ENDCHAR
STARTCHAR char9472
ENCODING 9472
SWIDTH 281 0
DWIDTH 4 0
BBX 4 1 -1 2
BITMAP
F0
ENDCHAR
STARTCHAR char9473
ENCODING 9473
SWIDTH 281 0
DWIDTH 4 0
BBX 4 2 -1 1
BITMAP
F0
F0
ENDCHAR
STARTCHAR char9474
ENCODING 9474
SWIDTH 281 0
DWIDTH 4 0
BBX 2 6 0 -1
BITMAP
40
40
40
40
40
40
ENDCHAR
STARTCHAR char9475
ENCODING 9475
SWIDTH 281 0
DWIDTH 4 0
BBX 2 6 0 -1
BITMAP
C0
C0
C0
C0
C0
C0
ENDCHAR
STARTCHAR char9476
ENCODING 9476
SWIDTH 281 0
DWIDTH 4 0
BBX 3 1 0 2
BITMAP
A0
ENDCHAR
STARTCHAR char9477
ENCODING 9477
SWIDTH 281 0
DWIDTH 4 0
BBX 3 2 0 1
BITMAP
A0
A0
ENDCHAR
STARTCHAR char9478
ENCODING 9478
SWIDTH 281 0
DWIDTH 4 0
BBX 1 5 1 0
BITMAP
80
80
00
80
80
ENDCHAR
STARTCHAR char9479
ENCODING 9479
SWIDTH 281 0
DWIDTH 4 0
BBX 2 5 0 0
BITMAP
C0
C0
00
C0
C0
ENDCHAR
STARTCHAR char9480
ENCODING 9480
SWIDTH 281 0
DWIDTH 4 0
BBX 3 1 0 2
BITMAP
A0
ENDCHAR
STARTCHAR char9481
ENCODING 9481
SWIDTH 281 0
DWIDTH 4 0
BBX 3 2 0 1
BITMAP
A0
A0
ENDCHAR
STARTCHAR char9482
ENCODING 9482
SWIDTH 281 0
DWIDTH 4 0
BBX 2 5 0 0
BITMAP
40
00
40
00
40
ENDCHAR
STARTCHAR char9483
ENCODING 9483
SWIDTH 281 0
DWIDTH 4 0
BBX 2 5 0 0
BITMAP
C0
00
C0
00
C0
ENDCHAR
STARTCHAR char9484
ENCODING 9484
SWIDTH 281 0
DWIDTH 4 0
BBX 3 4 0 -1
BITMAP
60
40
40
40
ENDCHAR
STARTCHAR char9485
ENCODING 9485
SWIDTH 281 0
DWIDTH 4 0
BBX 3 4 0 -1
BITMAP
60
60
40
40
ENDCHAR
STARTCHAR char9486
ENCODING 9486
SWIDTH 281 0
DWIDTH 4 0
BBX 3 4 0 -1
BITMAP
E0
C0
C0
C0
ENDCHAR
STARTCHAR char9487
ENCODING 9487
SWIDTH 281 0
DWIDTH 4 0
BBX 3 4 0 -1
BITMAP
E0
E0
C0
C0
ENDCHAR
STARTCHAR char9488
ENCODING 9488
SWIDTH 281 0
DWIDTH 4 0
BBX 3 4 -1 -1
BITMAP
E0
20
20
20
ENDCHAR
STARTCHAR char9489
ENCODING 9489
SWIDTH 281 0
DWIDTH 4 0
BBX 3 4 -1 -1
BITMAP
E0
E0
20
20
ENDCHAR
STARTCHAR char9490
ENCODING 9490
SWIDTH 281 0
DWIDTH 4 0
BBX 3 4 -1 -1
BITMAP
E0
60
60
60
ENDCHAR
STARTCHAR char9491
ENCODING 9491
SWIDTH 281 0
DWIDTH 4 0
BBX 3 4 -1 -1
BITMAP
E0
E0
60
60
ENDCHAR
STARTCHAR char9492
ENCODING 9492
SWIDTH 281 0
DWIDTH 4 0
BBX 2 3 1 2
BITMAP
80
80
C0
ENDCHAR
STARTCHAR char9493
ENCODING 9493
SWIDTH 281 0
DWIDTH 4 0
BBX 2 4 1 1
BITMAP
80
80
C0
C0
ENDCHAR
STARTCHAR char9494
ENCODING 9494
SWIDTH 281 0
DWIDTH 4 0
BBX 3 3 0 2
BITMAP
C0
C0
E0
ENDCHAR
STARTCHAR char9495
ENCODING 9495
SWIDTH 281 0
DWIDTH 4 0
BBX 3 4 0 1
BITMAP
C0
C0
E0
E0
ENDCHAR
STARTCHAR char9496
ENCODING 9496
SWIDTH 281 0
DWIDTH 4 0
BBX 3 3 -1 2
BITMAP
20
20
E0
ENDCHAR
STARTCHAR char9497
ENCODING 9497
SWIDTH 281 0
DWIDTH 4 0
BBX 3 4 -1 1
BITMAP
20
20
E0
E0
ENDCHAR
STARTCHAR char9498
ENCODING 9498
SWIDTH 281 0
DWIDTH 4 0
BBX 3 3 -1 2
BITMAP
60
60
E0
ENDCHAR
STARTCHAR char9499
ENCODING 9499
SWIDTH 281 0
DWIDTH 4 0
BBX 3 4 -1 1
BITMAP
60
60
E0
E0
ENDCHAR
STARTCHAR char9500
ENCODING 9500
SWIDTH 281 0
DWIDTH 4 0
BBX 3 6 0 -1
BITMAP
40
40
60
40
40
40
ENDCHAR
STARTCHAR char9501
ENCODING 9501
SWIDTH 281 0
DWIDTH 4 0
BBX 3 6 0 -1
BITMAP
40
40
60
60
40
40
ENDCHAR
STARTCHAR char9502
ENCODING 9502
SWIDTH 281 0
DWIDTH 4 0
BBX 3 6 0 -1
BITMAP
C0
C0
E0
40
40
40
ENDCHAR
STARTCHAR char9503
ENCODING 9503
SWIDTH 281 0
DWIDTH 4 0
BBX 3 6 0 -1
BITMAP
40
40
E0
C0
C0
C0
ENDCHAR
STARTCHAR char9504
ENCODING 9504
SWIDTH 281 0
DWIDTH 4 0
BBX 3 6 0 -1
BITMAP
C0
C0
E0
C0
C0
C0
ENDCHAR
STARTCHAR char9505
ENCODING 9505
SWIDTH 281 0
DWIDTH 4 0
BBX 3 6 0 -1
BITMAP
C0
C0
E0
E0
40
40
ENDCHAR
STARTCHAR char9506
ENCODING 9506
SWIDTH 281 0
DWIDTH 4 0
BBX 3 6 0 -1
BITMAP
40
40
E0
E0
C0
C0
ENDCHAR
STARTCHAR char9507
ENCODING 9507
SWIDTH 281 0
DWIDTH 4 0
BBX 3 6 0 -1
BITMAP
C0
C0
E0
E0
C0
C0
ENDCHAR
STARTCHAR char9508
ENCODING 9508
SWIDTH 281 0
DWIDTH 4 0
BBX 2 6 0 -1
BITMAP
40
40
C0
40
40
40
ENDCHAR
STARTCHAR char9509
ENCODING 9509
SWIDTH 281 0
DWIDTH 4 0
BBX 2 6 0 -1
BITMAP
40
40
C0
C0
40
40
ENDCHAR
STARTCHAR char9510
ENCODING 9510
SWIDTH 281 0
DWIDTH 4 0
BBX 2 6 0 -1
BITMAP
C0
C0
C0
40
40
40
ENDCHAR
STARTCHAR char9511
ENCODING 9511
SWIDTH 281 0
DWIDTH 4 0
BBX 2 6 0 -1
BITMAP
40
40
C0
C0
C0
C0
ENDCHAR
STARTCHAR char9512
ENCODING 9512
SWIDTH 281 0
DWIDTH 4 0
BBX 2 6 0 -1
BITMAP
C0
C0
C0
C0
C0
C0
ENDCHAR
STARTCHAR char9513
ENCODING 9513
SWIDTH 281 0
DWIDTH 4 0
BBX 2 6 0 -1
BITMAP
C0
C0
C0
C0
40
40
ENDCHAR
STARTCHAR char9514
ENCODING 9514
SWIDTH 281 0
DWIDTH 4 0
BBX 2 6 0 -1
BITMAP
40
40
C0
C0
C0
C0
ENDCHAR
STARTCHAR char9515
ENCODING 9515
SWIDTH 281 0
DWIDTH 4 0
BBX 2 6 0 -1
BITMAP
C0
C0
C0
C0
C0
C0
ENDCHAR
STARTCHAR char9516
ENCODING 9516
SWIDTH 281 0
DWIDTH 4 0
BBX 4 4 -1 -1
BITMAP
F0
20
20
20
ENDCHAR
STARTCHAR char9517
ENCODING 9517
SWIDTH 281 0
DWIDTH 4 0
BBX 4 4 -1 -1
BITMAP
F0
E0
20
20
ENDCHAR
STARTCHAR char9518
ENCODING 9518
SWIDTH 281 0
DWIDTH 4 0
BBX 4 4 -1 -1
BITMAP
F0
30
20
20
ENDCHAR
STARTCHAR char9519
ENCODING 9519
SWIDTH 281 0
DWIDTH 4 0
BBX 4 4 -1 -1
BITMAP
F0
F0
20
20
ENDCHAR
STARTCHAR char9520
ENCODING 9520
SWIDTH 281 0
DWIDTH 4 0
BBX 4 4 -1 -1
BITMAP
F0
60
60
60
ENDCHAR
STARTCHAR char9521
ENCODING 9521
SWIDTH 281 0
DWIDTH 4 0
BBX 4 4 -1 -1
BITMAP
F0
E0
60
60
ENDCHAR
STARTCHAR char9522
ENCODING 9522
SWIDTH 281 0
DWIDTH 4 0
BBX 4 4 -1 -1
BITMAP
F0
70
60
60
ENDCHAR
STARTCHAR char9523
ENCODING 9523
SWIDTH 281 0
DWIDTH 4 0
BBX 4 4 -1 -1
BITMAP
F0
F0
60
60
ENDCHAR
STARTCHAR char9524
ENCODING 9524
SWIDTH 281 0
DWIDTH 4 0
BBX 4 3 -1 2
BITMAP
20
20
F0
ENDCHAR
STARTCHAR char9525
ENCODING 9525
SWIDTH 281 0
DWIDTH 4 0
BBX 4 4 -1 1
BITMAP
20
20
F0
E0
ENDCHAR
STARTCHAR char9526
ENCODING 9526
SWIDTH 281 0
DWIDTH 4 0
BBX 4 4 -1 1
BITMAP
20
20
F0
30
ENDCHAR
STARTCHAR char9527
ENCODING 9527
SWIDTH 281 0
DWIDTH 4 0
BBX 4 4 -1 1
BITMAP
20
20
F0
F0
ENDCHAR
STARTCHAR char9528
ENCODING 9528
SWIDTH 281 0
DWIDTH 4 0
BBX 4 3 -1 2
BITMAP
60
60
F0
ENDCHAR
STARTCHAR char9529
ENCODING 9529
SWIDTH 281 0
DWIDTH 4 0
BBX 4 4 -1 1
BITMAP
60
60
F0
E0
ENDCHAR
STARTCHAR char9530
ENCODING 9530
SWIDTH 281 0
DWIDTH 4 0
BBX 4 4 -1 1
BITMAP
60
60
F0
70
ENDCHAR
STARTCHAR char9531
ENCODING 9531
SWIDTH 281 0
DWIDTH 4 0
BBX 4 4 -1 1
BITMAP
60
60
F0
F0
ENDCHAR
STARTCHAR char9532
ENCODING 9532
SWIDTH 281 0
DWIDTH 4 0
BBX 4 6 -1 -1
BITMAP
20
20
F0
20
20
20
ENDCHAR
STARTCHAR char9533
ENCODING 9533
SWIDTH 281 0
DWIDTH 4 0
BBX 4 6 -1 -1
BITMAP
20
20
F0
E0
20
20
ENDCHAR
STARTCHAR char9534
ENCODING 9534
SWIDTH 281 0
DWIDTH 4 0
BBX 4 6 -1 -1
BITMAP
20
20
F0
30
20
20
ENDCHAR
STARTCHAR char9535
ENCODING 9535
SWIDTH 281 0
DWIDTH 4 0
BBX 4 6 -1 -1
BITMAP
20
20
F0
F0
20
20
ENDCHAR
STARTCHAR char9536
ENCODING 9536
SWIDTH 281 0
DWIDTH 4 0
BBX 4 6 -1 -1
BITMAP
60
60
F0
20
20
20
ENDCHAR
STARTCHAR char9537
ENCODING 9537
SWIDTH 281 0
DWIDTH 4 0
BBX 4 6 -1 -1
BITMAP
20
20
F0
60
60
60
ENDCHAR
STARTCHAR char9538
ENCODING 9538
SWIDTH 281 0
DWIDTH 4 0
BBX 4 6 -1 -1
BITMAP
60
60
F0
60
60
60
ENDCHAR
STARTCHAR char9539
ENCODING 9539
SWIDTH 281 0
DWIDTH 4 0
BBX 4 6 -1 -1
BITMAP
60
60
F0
E0
20
20
ENDCHAR
STARTCHAR char9540
ENCODING 9540
SWIDTH 281 0
DWIDTH 4 0
BBX 4 6 -1 -1
BITMAP
60
60
F0
70
20
20
ENDCHAR
STARTCHAR char9541
ENCODING 9541
SWIDTH 281 0
DWIDTH 4 0
BBX 4 6 -1 -1
BITMAP
20
20
F0
E0
60
60
ENDCHAR
STARTCHAR char9542
ENCODING 9542
SWIDTH 281 0
DWIDTH 4 0
BBX 4 6 -1 -1
BITMAP
20
20
F0
70
60
60
ENDCHAR
STARTCHAR char9543
ENCODING 9543
SWIDTH 281 0
DWIDTH 4 0
BBX 4 6 -1 -1
BITMAP
60
60
F0
F0
20
20
ENDCHAR
STARTCHAR char9544
ENCODING 9544
SWIDTH 281 0
DWIDTH 4 0
BBX 4 6 -1 -1
BITMAP
20
20
F0
F0
60
60
ENDCHAR
STARTCHAR char9545
ENCODING 9545
SWIDTH 281 0
DWIDTH 4 0
BBX 4 6 -1 -1
BITMAP
60
60
F0
E0
60
60
ENDCHAR
STARTCHAR char9546
ENCODING 9546
SWIDTH 281 0
DWIDTH 4 0
BBX 4 6 -1 -1
BITMAP
60
60
F0
70
60
60
ENDCHAR
STARTCHAR char9547
ENCODING 9547
SWIDTH 281 0
DWIDTH 4 0
BBX 4 6 -1 -1
BITMAP
60
60
F0
F0
60
60
ENDCHAR
STARTCHAR char9548
ENCODING 9548
SWIDTH 281 0
DWIDTH 4 0
BBX 3 1 0 2
BITMAP
A0
ENDCHAR
STARTCHAR char9549
ENCODING 9549
SWIDTH 281 0
DWIDTH 4 0
BBX 3 2 0 1
BITMAP
A0
A0
ENDCHAR
STARTCHAR char9550
ENCODING 9550
SWIDTH 281 0
DWIDTH 4 0
BBX 2 6 0 -1
BITMAP
40
40
40
00
40
40
ENDCHAR
STARTCHAR char9551
ENCODING 9551
SWIDTH 281 0
DWIDTH 4 0
BBX 2 6 0 -1
BITMAP
C0
C0
C0
00
C0
C0
ENDCHAR
STARTCHAR char9552
ENCODING 9552
SWIDTH 281 0
DWIDTH 4 0
BBX 4 3 -1 0
BITMAP
F0
00
F0
ENDCHAR
STARTCHAR char9553
ENCODING 9553
SWIDTH 281 0
DWIDTH 4 0
BBX 3 6 0 -1
BITMAP
A0
A0
A0
A0
A0
A0
ENDCHAR
STARTCHAR char9554
ENCODING 9554
SWIDTH 281 0
DWIDTH 4 0
BBX 3 4 0 -1
BITMAP
60
40
60
40
ENDCHAR
STARTCHAR char9555
ENCODING 9555
SWIDTH 281 0
DWIDTH 4 0
BBX 3 4 0 -1
BITMAP
E0
A0
A0
A0
ENDCHAR
STARTCHAR char9556
ENCODING 9556
SWIDTH 281 0
DWIDTH 4 0
BBX 3 4 0 -1
BITMAP
E0
80
A0
A0
ENDCHAR
STARTCHAR char9557
ENCODING 9557
SWIDTH 281 0
DWIDTH 4 0
BBX 3 4 -1 -1
BITMAP
E0
20
E0
20
ENDCHAR
STARTCHAR char9558
ENCODING 9558
SWIDTH 281 0
DWIDTH 4 0
BBX 4 4 -1 -1
BITMAP
F0
50
50
50
ENDCHAR
STARTCHAR char9559
ENCODING 9559
SWIDTH 281 0
DWIDTH 4 0
BBX 4 4 -1 -1
BITMAP
F0
10
D0
50
ENDCHAR
STARTCHAR char9560
ENCODING 9560
SWIDTH 281 0
DWIDTH 4 0
BBX 3 5 0 0
BITMAP
80
80
E0
80
E0
ENDCHAR
STARTCHAR char9561
ENCODING 9561
SWIDTH 281 0
DWIDTH 4 0
BBX 3 3 0 2
BITMAP
A0
A0
E0
ENDCHAR
STARTCHAR char9562
ENCODING 9562
SWIDTH 281 0
DWIDTH 4 0
BBX 3 5 0 0
BITMAP
A0
A0
A0
80
E0
ENDCHAR
STARTCHAR char9563
ENCODING 9563
SWIDTH 281 0
DWIDTH 4 0
BBX 3 5 -1 0
BITMAP
20
20
E0
20
E0
ENDCHAR
STARTCHAR char9564
ENCODING 9564
SWIDTH 281 0
DWIDTH 4 0
BBX 4 3 -1 2
BITMAP
50
50
F0
ENDCHAR
STARTCHAR char9565
ENCODING 9565
SWIDTH 281 0
DWIDTH 4 0
BBX 4 5 -1 0
BITMAP
50
50
D0
10
F0
ENDCHAR
STARTCHAR char9566
ENCODING 9566
SWIDTH 281 0
DWIDTH 4 0
BBX 2 6 1 -1
BITMAP
80
80
C0
80
C0
80
ENDCHAR
STARTCHAR char9567
ENCODING 9567
SWIDTH 281 0
DWIDTH 4 0
BBX 3 6 0 -1
BITMAP
A0
A0
A0
A0
A0
A0
ENDCHAR
STARTCHAR char9568
ENCODING 9568
SWIDTH 281 0
DWIDTH 4 0
BBX 3 6 0 -1
BITMAP
A0
A0
A0
80
A0
A0
ENDCHAR
STARTCHAR char9569
ENCODING 9569
SWIDTH 281 0
DWIDTH 4 0
BBX 3 6 -1 -1
BITMAP
20
20
E0
20
E0
20
ENDCHAR
STARTCHAR char9570
ENCODING 9570
SWIDTH 281 0
DWIDTH 4 0
BBX 4 6 -1 -1
BITMAP
50
50
D0
50
50
50
ENDCHAR
STARTCHAR char9571
ENCODING 9571
SWIDTH 281 0
DWIDTH 4 0
BBX 4 6 -1 -1
BITMAP
50
50
D0
10
D0
50
ENDCHAR
STARTCHAR char9572
ENCODING 9572
SWIDTH 281 0
DWIDTH 4 0
BBX 4 4 -1 -1
BITMAP
F0
00
F0
20
ENDCHAR
STARTCHAR char9573
ENCODING 9573
SWIDTH 281 0
DWIDTH 4 0
BBX 4 4 -1 -1
BITMAP
F0
50
50
50
ENDCHAR
STARTCHAR char9574
ENCODING 9574
SWIDTH 281 0
DWIDTH 4 0
BBX 4 4 -1 -1
BITMAP
F0
00
D0
50
ENDCHAR
STARTCHAR char9575
ENCODING 9575
SWIDTH 281 0
DWIDTH 4 0
BBX 4 5 -1 0
BITMAP
20
20
F0
00
F0
ENDCHAR
STARTCHAR char9576
ENCODING 9576
SWIDTH 281 0
DWIDTH 4 0
BBX 4 3 -1 2
BITMAP
50
50
F0
ENDCHAR
STARTCHAR char9577
ENCODING 9577
SWIDTH 281 0
DWIDTH 4 0
BBX 4 5 -1 0
BITMAP
50
50
D0
00
F0
ENDCHAR
STARTCHAR char9578
ENCODING 9578
SWIDTH 281 0
DWIDTH 4 0
BBX 4 6 -1 -1
BITMAP
20
20
F0
00
F0
20
ENDCHAR
STARTCHAR char9579
ENCODING 9579
SWIDTH 281 0
DWIDTH 4 0
BBX 4 6 -1 -1
BITMAP
50
50
D0
50
50
50
ENDCHAR
STARTCHAR char9580
ENCODING 9580
SWIDTH 281 0
DWIDTH 4 0
BBX 4 6 -1 -1
BITMAP
50
50
D0
00
D0
50
ENDCHAR
STARTCHAR char9581
ENCODING 9581
SWIDTH 281 0
DWIDTH 4 0
BBX 3 4 0 -1
BITMAP
20
40
40
40
ENDCHAR
STARTCHAR char9582
ENCODING 9582
SWIDTH 281 0
DWIDTH 4 0
BBX 3 4 -1 -1
BITMAP
C0
20
20
20
ENDCHAR
STARTCHAR char9583
ENCODING 9583
SWIDTH 281 0
DWIDTH 4 0
BBX 3 3 -1 2
BITMAP
20
20
C0
ENDCHAR
STARTCHAR char9584
ENCODING 9584
SWIDTH 281 0
DWIDTH 4 0
BBX 2 3 1 2
BITMAP
80
80
40
ENDCHAR
STARTCHAR char9585
ENCODING 9585
SWIDTH 281 0
DWIDTH 4 0
BBX 4 6 -1 -1
BITMAP
10
10
20
40
40
80
ENDCHAR
STARTCHAR char9586
ENCODING 9586
SWIDTH 281 0
DWIDTH 4 0
BBX 4 6 -1 -1
BITMAP
80
80
40
20
20
10
ENDCHAR
STARTCHAR char9587
ENCODING 9587
SWIDTH 281 0
DWIDTH 4 0
BBX 4 6 -1 -1
BITMAP
90
90
60
60
60
90
ENDCHAR
STARTCHAR char9588
ENCODING 9588
SWIDTH 281 0
DWIDTH 4 0
BBX 3 1 -1 2
BITMAP
E0
ENDCHAR
STARTCHAR char9589
ENCODING 9589
SWIDTH 281 0
DWIDTH 4 0
BBX 1 3 1 2
BITMAP
80
80
80
ENDCHAR
STARTCHAR char9590
ENCODING 9590
SWIDTH 281 0
DWIDTH 4 0
BBX 2 1 1 2
BITMAP
C0
ENDCHAR
STARTCHAR char9591
ENCODING 9591
SWIDTH 281 0
DWIDTH 4 0
BBX 2 4 0 -1
BITMAP
40
40
40
40
ENDCHAR
STARTCHAR char9592
ENCODING 9592
SWIDTH 281 0
DWIDTH 4 0
BBX 3 2 -1 1
BITMAP
E0
E0
ENDCHAR
STARTCHAR char9593
ENCODING 9593
SWIDTH 281 0
DWIDTH 4 0
BBX 2 4 0 1
BITMAP
C0
C0
C0
C0
ENDCHAR
STARTCHAR char9594
ENCODING 9594
SWIDTH 281 0
DWIDTH 4 0
BBX 2 2 1 1
BITMAP
C0
C0
ENDCHAR
STARTCHAR char9595
ENCODING 9595
SWIDTH 281 0
DWIDTH 4 0
BBX 2 4 0 -1
BITMAP
C0
C0
C0
C0
ENDCHAR
STARTCHAR char9596
ENCODING 9596
SWIDTH 281 0
DWIDTH 4 0
BBX 4 2 -1 1
BITMAP
F0
30
ENDCHAR
STARTCHAR char9597
ENCODING 9597
SWIDTH 281 0
DWIDTH 4 0
BBX 2 6 0 -1
BITMAP
40
40
C0
C0
C0
C0
ENDCHAR
STARTCHAR char9598
ENCODING 9598
SWIDTH 281 0
DWIDTH 4 0
BBX 4 2 -1 1
BITMAP
F0
E0
ENDCHAR
STARTCHAR char9599
ENCODING 9599
SWIDTH 281 0
DWIDTH 4 0
BBX 2 6 0 -1
BITMAP
C0
C0
C0
C0
40
40
ENDCHAR
STARTCHAR char9601
ENCODING 9601
SWIDTH 281 0
DWIDTH 4 0
BBX 3 1 0 0
BITMAP
E0
ENDCHAR
STARTCHAR char9602
ENCODING 9602
SWIDTH 281 0
DWIDTH 4 0
BBX 3 2 0 0
BITMAP
40
E0
ENDCHAR
STARTCHAR char9603
ENCODING 9603
SWIDTH 281 0
DWIDTH 4 0
BBX 3 2 0 0
BITMAP
E0
E0
ENDCHAR
STARTCHAR char9604
ENCODING 9604
SWIDTH 281 0
DWIDTH 4 0
BBX 3 3 0 0
BITMAP
40
E0
E0
ENDCHAR
STARTCHAR char9605
ENCODING 9605
SWIDTH 281 0
DWIDTH 4 0
BBX 3 3 0 0
BITMAP
E0
E0
E0
ENDCHAR
STARTCHAR char9606
ENCODING 9606
SWIDTH 281 0
DWIDTH 4 0
BBX 3 4 0 0
BITMAP
40
E0
E0
E0
ENDCHAR
STARTCHAR char9607
ENCODING 9607
SWIDTH 281 0
DWIDTH 4 0
BBX 3 4 0 0
BITMAP
E0
E0
E0
E0
ENDCHAR
STARTCHAR char9608
ENCODING 9608
SWIDTH 281 0
DWIDTH 4 0
BBX 3 5 0 0
BITMAP
E0
E0
E0
E0
E0
ENDCHAR
STARTCHAR char9609
ENCODING 9609
SWIDTH 281 0
DWIDTH 4 0
BBX 3 5 0 0
BITMAP
E0
C0
E0
C0
E0
ENDCHAR
STARTCHAR char9610
ENCODING 9610
SWIDTH 281 0
DWIDTH 4 0
BBX 2 5 0 0
BITMAP
C0
C0
C0
C0
C0
ENDCHAR
STARTCHAR char9611
ENCODING 9611
SWIDTH 281 0
DWIDTH 4 0
BBX 2 5 0 0
BITMAP
C0
C0
80
C0
C0
ENDCHAR
STARTCHAR char9612
ENCODING 9612
SWIDTH 281 0
DWIDTH 4 0
BBX 2 5 0 0
BITMAP
C0
80
C0
80
C0
ENDCHAR
STARTCHAR char9613
ENCODING 9613
SWIDTH 281 0
DWIDTH 4 0
BBX 2 5 0 0
BITMAP
80
C0
80
C0
80
ENDCHAR
STARTCHAR char9614
ENCODING 9614
SWIDTH 281 0
DWIDTH 4 0
BBX 1 5 0 0
BITMAP
80
80
80
80
80
ENDCHAR
STARTCHAR char9615
ENCODING 9615
SWIDTH 281 0
DWIDTH 4 0
BBX 1 5 0 0
BITMAP
80
00
80
00
80
ENDCHAR
STARTCHAR char9616
ENCODING 9616
SWIDTH 281 0
DWIDTH 4 0
BBX 3 5 0 0
BITMAP
60
20
60
20
60
ENDCHAR
STARTCHAR char9617
ENCODING 9617
SWIDTH 281 0
DWIDTH 4 0
BBX 3 5 0 0
BITMAP
A0
00
40
00
A0
ENDCHAR
STARTCHAR char9618
ENCODING 9618
SWIDTH 281 0
DWIDTH 4 0
BBX 3 5 0 0
BITMAP
A0
00
A0
00
A0
ENDCHAR
STARTCHAR char9619
ENCODING 9619
SWIDTH 281 0
DWIDTH 4 0
BBX 3 6 0 -1
BITMAP
A0
40
A0
40
A0
40
ENDCHAR
STARTCHAR char9620
ENCODING 9620
SWIDTH 281 0
DWIDTH 4 0
BBX 3 1 0 4
BITMAP
E0
ENDCHAR
STARTCHAR char9621
ENCODING 9621
SWIDTH 281 0
DWIDTH 4 0
BBX 3 5 0 0
BITMAP
20
20
20
20
20
ENDCHAR
STARTCHAR char9622
ENCODING 9622
SWIDTH 281 0
DWIDTH 4 0
BBX 2 3 0 0
BITMAP
C0
C0
C0
ENDCHAR
STARTCHAR char9623
ENCODING 9623
SWIDTH 281 0
DWIDTH 4 0
BBX 3 3 0 0
BITMAP
60
60
60
ENDCHAR
STARTCHAR char9624
ENCODING 9624
SWIDTH 281 0
DWIDTH 4 0
BBX 2 3 1 2
BITMAP
C0
C0
C0
ENDCHAR
STARTCHAR char9625
ENCODING 9625
SWIDTH 281 0
DWIDTH 4 0
BBX 3 5 0 0
BITMAP
C0
C0
E0
E0
E0
ENDCHAR
STARTCHAR char9626
ENCODING 9626
SWIDTH 281 0
DWIDTH 4 0
BBX 3 5 0 0
BITMAP
C0
C0
E0
60
60
ENDCHAR
STARTCHAR char9627
ENCODING 9627
SWIDTH 281 0
DWIDTH 4 0
BBX 3 5 0 0
BITMAP
E0
E0
E0
C0
C0
ENDCHAR
STARTCHAR char9628
ENCODING 9628
SWIDTH 281 0
DWIDTH 4 0
BBX 3 5 0 0
BITMAP
E0
E0
E0
60
60
ENDCHAR
STARTCHAR char9629
ENCODING 9629
SWIDTH 281 0
DWIDTH 4 0
BBX 2 3 0 2
BITMAP
C0
C0
C0
ENDCHAR
STARTCHAR char9630
ENCODING 9630
SWIDTH 281 0
DWIDTH 4 0
BBX 3 5 0 0
BITMAP
60
60
E0
C0
C0
ENDCHAR
STARTCHAR char9631
ENCODING 9631
SWIDTH 281 0
DWIDTH 4 0
BBX 3 5 0 0
BITMAP
60
60
E0
E0
E0
ENDCHAR
STARTCHAR char9632
ENCODING 9632
SWIDTH 281 0
DWIDTH 4 0
BBX 3 3 0 1
BITMAP
E0
E0
E0
ENDCHAR
STARTCHAR char9633
ENCODING 9633
SWIDTH 281 0
DWIDTH 4 0
BBX 3 3 0 1
BITMAP
E0
A0
E0
ENDCHAR
STARTCHAR char9634
ENCODING 9634
SWIDTH 281 0
DWIDTH 4 0
BBX 3 3 0 1
BITMAP
40
A0
40
ENDCHAR
STARTCHAR char9642
ENCODING 9642
SWIDTH 281 0
DWIDTH 4 0
BBX 2 2 0 1
BITMAP
C0
C0
ENDCHAR
STARTCHAR char9650
ENCODING 9650
SWIDTH 281 0
DWIDTH 4 0
BBX 3 3 0 0
BITMAP
40
A0
E0
ENDCHAR
STARTCHAR char9651
ENCODING 9651
SWIDTH 281 0
DWIDTH 4 0
BBX 3 3 0 0
BITMAP
40
E0
E0
ENDCHAR
STARTCHAR char9652
ENCODING 9652
SWIDTH 281 0
DWIDTH 4 0
BBX 3 2 0 1
BITMAP
40
E0
ENDCHAR
STARTCHAR char9728
ENCODING 9728
SWIDTH 281 0
DWIDTH 4 0
BBX 3 5 0 0
BITMAP
A0
40
E0
40
A0
ENDCHAR
STARTCHAR char9729
ENCODING 9729
SWIDTH 281 0
DWIDTH 4 0
BBX 3 3 0 2
BITMAP
40
E0
E0
ENDCHAR
STARTCHAR char9730
ENCODING 9730
SWIDTH 281 0
DWIDTH 4 0
BBX 3 6 0 -1
BITMAP
40
E0
E0
40
40
C0
ENDCHAR
STARTCHAR char9825
ENCODING 9825
SWIDTH 281 0
DWIDTH 4 0
BBX 3 4 0 0
BITMAP
A0
E0
A0
40
ENDCHAR
STARTCHAR char9829
ENCODING 9829
SWIDTH 281 0
DWIDTH 4 0
BBX 3 4 0 0
BITMAP
A0
E0
E0
40
ENDCHAR
STARTCHAR char10003
ENCODING 10003
SWIDTH 281 0
DWIDTH 4 0
BBX 3 3 0 1
BITMAP
20
A0
40
ENDCHAR
STARTCHAR char10004
ENCODING 10004
SWIDTH 281 0
DWIDTH 4 0
BBX 3 4 0 0
BITMAP
20
A0
E0
40
ENDCHAR
STARTCHAR char10030
ENCODING 10030
SWIDTH 281 0
DWIDTH 4 0
BBX 3 4 0 0
BITMAP
40
E0
40
A0
ENDCHAR
STARTCHAR char10178
ENCODING 10178
SWIDTH 281 0
DWIDTH 4 0
BBX 3 4 0 0
BITMAP
40
40
40
E0
ENDCHAR
STARTCHAR char10179
ENCODING 10179
SWIDTH 281 0
DWIDTH 4 0
BBX 3 5 0 0
BITMAP
60
80
A0
80
60
ENDCHAR
STARTCHAR char10180
ENCODING 10180
SWIDTH 281 0
DWIDTH 4 0
BBX 3 5 0 0
BITMAP
C0
20
A0
20
C0
ENDCHAR
STARTCHAR char10198
ENCODING 10198
SWIDTH 281 0
DWIDTH 4 0
BBX 3 5 0 0
BITMAP
40
40
40
40
E0
ENDCHAR
STARTCHAR char10199
ENCODING 10199
SWIDTH 281 0
DWIDTH 4 0
BBX 3 5 0 0
BITMAP
E0
40
40
40
40
ENDCHAR
STARTCHAR char10205
ENCODING 10205
SWIDTH 281 0
DWIDTH 4 0
BBX 3 3 0 1
BITMAP
80
E0
80
ENDCHAR
STARTCHAR char10206
ENCODING 10206
SWIDTH 281 0
DWIDTH 4 0
BBX 3 3 0 1
BITMAP
20
E0
20
ENDCHAR
STARTCHAR char11136
ENCODING 11136
SWIDTH 281 0
DWIDTH 4 0
BBX 3 5 0 0
BITMAP
80
C0
E0
C0
80
ENDCHAR
STARTCHAR char11137
ENCODING 11137
SWIDTH 281 0
DWIDTH 4 0
BBX 3 5 0 0
BITMAP
80
40
20
40
80
ENDCHAR
STARTCHAR char11138
ENCODING 11138
SWIDTH 281 0
DWIDTH 4 0
BBX 3 5 0 0
BITMAP
20
60
E0
60
20
ENDCHAR
STARTCHAR char11139
ENCODING 11139
SWIDTH 281 0
DWIDTH 4 0
BBX 3 5 0 0
BITMAP
20
40
80
40
20
ENDCHAR
STARTCHAR char57520
ENCODING 57520
SWIDTH 281 0
DWIDTH 4 0
BBX 3 5 0 0
BITMAP
80
C0
E0
C0
80
ENDCHAR
STARTCHAR char57521
ENCODING 57521
SWIDTH 281 0
DWIDTH 4 0
BBX 3 5 0 0
BITMAP
80
40
20
40
80
ENDCHAR
STARTCHAR char57522
ENCODING 57522
SWIDTH 281 0
DWIDTH 4 0
BBX 3 5 0 0
BITMAP
20
60
E0
60
20
ENDCHAR
STARTCHAR char57523
ENCODING 57523
SWIDTH 281 0
DWIDTH 4 0
BBX 3 5 0 0
BITMAP
20
40
80
40
20
ENDCHAR
STARTCHAR char57537
ENCODING 57537
SWIDTH 281 0
DWIDTH 4 0
BBX 2 3 1 1
BITMAP
80
40
80
ENDCHAR
STARTCHAR char57553
ENCODING 57553
SWIDTH 281 0
DWIDTH 4 0
BBX 2 3 0 1
BITMAP
40
80
40
ENDCHAR
ENDFONT
